<?xml version="1.0" standalone="no"?>
<!DOCTYPE svg PUBLIC "-//W3C//DTD SVG 20010904//EN"
 "http://www.w3.org/TR/2001/REC-SVG-20010904/DTD/svg10.dtd">
<svg version="1.0" xmlns="http://www.w3.org/2000/svg"
 width="960.000000pt" height="960.000000pt" viewBox="0 0 960.000000 960.000000"
 preserveAspectRatio="xMidYMid meet">
<metadata>
Created by potrace 1.14, written by Peter Selinger 2001-2017
</metadata>
<g transform="translate(0.000000,960.000000) scale(0.100000,-0.100000)"
fill="#000000" stroke="none">
<path d="M6757 7904 c-1 -1 -60 -5 -131 -8 -70 -3 -131 -8 -135 -10 -3 -2 -33
-6 -66 -10 -70 -7 -107 -13 -155 -26 -19 -5 -51 -12 -70 -15 -19 -3 -73 -18
-120 -32 -47 -15 -89 -27 -95 -29 -21 -5 -143 -54 -200 -80 -33 -15 -62 -28
-65 -29 -11 -2 -149 -81 -203 -117 -32 -21 -60 -38 -63 -38 -6 0 -120 -87
-194 -148 -70 -58 -223 -213 -274 -277 -22 -28 -44 -54 -51 -60 -36 -32 -255
-378 -255 -403 0 -6 -3 -12 -8 -14 -28 -12 -193 -436 -227 -584 -2 -10 -15
-66 -29 -124 -13 -58 -29 -139 -36 -180 -6 -41 -13 -86 -16 -100 -2 -14 -6
-50 -10 -80 -3 -30 -7 -65 -9 -78 -22 -135 -22 -721 0 -842 2 -14 6 -52 9 -85
3 -33 8 -71 10 -85 3 -14 7 -45 10 -70 8 -60 11 -73 41 -210 10 -41 19 -84 20
-95 2 -11 4 -21 5 -22 2 -2 3 -6 4 -10 5 -21 38 -130 43 -143 3 -8 7 -19 8
-25 1 -11 2 -14 46 -125 17 -41 31 -79 33 -85 10 -35 114 -253 126 -265 3 -3
13 -21 23 -40 31 -59 52 -95 57 -100 10 -10 50 -69 50 -74 0 -3 6 -14 14 -23
8 -10 36 -47 63 -83 58 -79 49 -68 158 -187 50 -54 113 -118 140 -141 28 -23
67 -57 87 -74 20 -18 46 -40 58 -48 12 -8 41 -29 64 -46 86 -63 353 -216 391
-223 6 -2 24 -8 40 -16 151 -66 387 -131 550 -151 28 -4 53 -8 56 -10 28 -16
437 -23 579 -10 47 5 96 10 110 11 31 3 84 12 175 31 39 8 79 16 91 18 12 3
54 14 95 27 41 12 79 23 84 25 26 5 202 77 279 113 47 23 89 41 92 40 4 0 10
3 13 8 3 5 24 20 46 33 162 95 292 196 425 330 96 96 253 291 294 365 9 17 26
46 38 65 21 36 92 171 94 180 1 6 30 76 46 110 6 14 12 27 13 30 1 4 36 118
64 205 6 17 12 41 15 55 2 14 11 53 19 86 8 34 12 66 8 71 -3 5 -152 9 -337 8
l-331 0 -13 -47 c-6 -26 -13 -53 -14 -60 -2 -7 -5 -20 -8 -28 -3 -8 -16 -44
-28 -80 -26 -76 -90 -207 -131 -268 -16 -24 -29 -45 -29 -47 0 -6 -9 -17 -86
-110 -60 -72 -133 -145 -146 -145 -5 0 -8 -7 -8 -15 0 -8 -4 -15 -8 -15 -4 0
-17 -7 -27 -15 -68 -54 -148 -108 -195 -135 -168 -94 -383 -170 -555 -197
-109 -17 -226 -26 -310 -25 -102 2 -124 2 -137 1 -14 -1 -56 5 -173 22 -108
17 -288 65 -360 98 -11 5 -47 21 -80 36 -52 23 -201 105 -230 127 -161 122
-263 216 -340 313 -22 27 -44 55 -50 62 -5 7 -15 18 -21 25 -5 7 -19 28 -29
46 -11 17 -23 32 -27 32 -4 0 -8 5 -8 11 0 6 -13 29 -28 52 -117 174 -254 543
-287 774 -2 12 -6 34 -9 50 -28 139 -41 325 -41 598 1 198 8 366 19 420 2 11
7 47 11 80 4 32 9 68 11 80 2 11 7 36 10 55 3 19 7 43 10 52 3 10 8 30 10 45
13 74 84 300 119 380 70 161 187 363 260 450 5 7 16 19 23 28 7 8 11 15 8 15
-2 0 8 13 22 28 15 15 46 48 68 72 64 69 152 150 163 150 5 0 11 3 13 8 15 34
232 164 368 221 142 59 141 58 175 67 17 4 35 9 40 10 22 8 203 44 250 50 28
4 124 8 215 8 181 1 274 -7 395 -33 28 -6 61 -14 75 -17 64 -13 244 -81 331
-124 90 -44 164 -91 276 -175 58 -44 217 -207 241 -247 9 -15 20 -28 24 -28 4
0 8 -4 8 -9 0 -5 16 -33 36 -62 55 -82 146 -275 159 -339 2 -8 11 -46 21 -83
16 -64 19 -68 41 -64 13 2 26 1 28 -3 3 -4 23 -4 45 0 22 4 40 5 40 1 0 -5 38
-5 193 -2 15 1 39 1 55 2 15 0 34 0 42 0 8 -1 26 -1 40 0 14 0 32 0 40 0 8 -1
26 -1 40 0 14 0 32 0 40 0 14 -1 48 0 77 2 11 0 10 24 -7 86 -5 19 -7 38 -4
43 3 4 1 8 -4 8 -5 0 -9 6 -9 13 -3 70 -86 304 -165 467 -39 80 -74 147 -77
150 -4 3 -22 30 -41 60 -143 230 -410 496 -638 635 -9 6 -35 22 -57 36 -40 25
-193 101 -270 134 -22 9 -49 21 -60 26 -107 47 -378 116 -530 135 -27 3 -59 8
-70 10 -11 2 -76 7 -145 10 -69 3 -140 7 -158 8 -18 1 -33 1 -35 0z"/>
<path d="M42 7815 c-3 -5 -6 -1260 -6 -2788 -1 -3009 -5 -2807 50 -2787 12 5
24 6 27 3 8 -8 97 -9 97 -1 0 4 13 3 29 -2 16 -4 32 -6 35 -2 8 8 102 5 116
-3 5 -3 10 -2 10 4 0 6 11 6 30 1 17 -5 30 -5 30 0 0 5 13 5 30 0 17 -5 30 -5
30 0 0 5 13 5 30 0 17 -5 30 -5 30 0 0 5 13 5 30 0 17 -5 30 -5 30 0 0 5 13 5
30 0 19 -6 32 -5 36 2 4 6 7 570 7 1253 l0 1243 1203 0 c661 0 1206 2 1211 5
4 3 8 137 8 299 l0 293 -1210 2 -1210 1 0 944 0 943 1335 0 1335 0 1 298 c0
197 -4 297 -11 298 -5 1 -756 2 -1668 3 -1080 1 -1661 -2 -1665 -9z"/>
</g>
</svg>
