<?xml version="1.0" standalone="no"?>
<!DOCTYPE svg PUBLIC "-//W3C//DTD SVG 20010904//EN"
 "http://www.w3.org/TR/2001/REC-SVG-20010904/DTD/svg10.dtd">
<svg version="1.0" xmlns="http://www.w3.org/2000/svg"
 width="512.000000pt" height="512.000000pt" viewBox="0 0 512.000000 512.000000"
 preserveAspectRatio="xMidYMid meet">
<metadata>
Created by potrace 1.14, written by Peter Selinger 2001-2017
</metadata>
<g transform="translate(0.000000,512.000000) scale(0.100000,-0.100000)"
fill="#000000" stroke="none">
<path d="M3165 3716 c-308 -50 -556 -251 -684 -553 -59 -138 -82 -258 -88
-458 -3 -112 -1 -213 6 -267 57 -430 297 -738 656 -843 122 -36 310 -45 440
-20 329 62 568 278 654 592 10 39 17 74 13 77 -3 3 -60 6 -128 6 l-122 0 -7
-32 c-16 -76 -77 -180 -145 -248 -114 -114 -259 -170 -445 -170 -185 0 -323
57 -450 185 -135 135 -203 297 -226 538 -27 292 38 558 181 734 263 324 798
304 1020 -38 20 -31 44 -83 54 -117 l19 -62 128 0 127 0 -14 60 c-69 297 -300
526 -606 600 -107 26 -279 33 -383 16z"/>
<path d="M767 3693 c-4 -3 -7 -478 -7 -1055 l0 -1048 130 0 130 0 0 470 0 470
458 2 457 3 0 110 0 110 -457 3 -458 2 0 355 0 355 505 0 505 0 0 115 0 115
-628 0 c-346 0 -632 -3 -635 -7z"/>
</g>
</svg>
